<?xml version="1.0" standalone="no"?>
<!DOCTYPE svg PUBLIC "-//W3C//DTD SVG 20010904//EN"
 "http://www.w3.org/TR/2001/REC-SVG-20010904/DTD/svg10.dtd">
<svg version="1.0" xmlns="http://www.w3.org/2000/svg"
 width="64px" height="1052.000000pt" viewBox="0 0 1280.000000 1052.000000"
 preserveAspectRatio="xMidYMid meet">
<metadata>
Created by potrace 1.15, written by Peter Selinger 2001-2017
</metadata>
<g transform="translate(0.000000,1052.000000) scale(0.100000,-0.100000)"
fill="#009688" stroke="none">
<path d="M4040 10513 c0 -8 -30 -142 -258 -1153 -72 -316 -214 -955 -317
-1420 -466 -2109 -770 -3469 -778 -3477 -3 -2 -40 17 -83 43 -179 107 -443
222 -640 279 -516 151 -995 96 -1358 -155 -284 -196 -486 -515 -566 -890 -59
-283 -50 -624 24 -844 90 -267 302 -531 573 -711 458 -306 1045 -378 1594
-195 341 113 679 323 971 602 l86 83 117 560 c64 308 136 650 160 760 24 110
80 369 125 575 102 472 158 726 379 1740 82 376 194 888 227 1042 l28 127 60
-43 c34 -24 435 -307 891 -631 457 -323 844 -598 862 -611 l31 -24 -35 -37
c-124 -135 -183 -288 -183 -478 0 -137 24 -242 85 -371 83 -178 172 -279 310
-351 l72 -38 -147 -660 c-172 -773 -372 -1659 -375 -1663 -2 -2 -55 27 -118
63 -215 123 -462 225 -676 280 -199 51 -274 60 -491 59 -188 0 -215 -2 -323
-28 -140 -32 -222 -62 -340 -123 -364 -188 -616 -541 -707 -992 -56 -277 -39
-647 41 -861 116 -312 416 -623 764 -790 576 -278 1257 -227 1861 140 172 104
432 307 546 426 l37 39 441 1910 c243 1051 473 2050 513 2220 l71 310 47 65
c58 80 138 226 175 320 15 38 28 70 30 70 2 0 44 -28 94 -62 50 -34 133 -78
183 -98 l91 -37 12 -76 c28 -181 132 -395 241 -498 67 -65 196 -137 273 -154
36 -8 36 -11 -2 -110 -33 -87 -33 -277 0 -385 141 -446 577 -716 1089 -671
112 10 269 39 335 63 33 11 230 239 1377 1593 l1339 1579 -250 501 c-491 981
-910 1780 -982 1869 l-22 29 -335 -399 c-185 -219 -614 -734 -954 -1143 -421
-506 -620 -739 -625 -730 -4 8 -51 187 -105 399 -53 212 -118 471 -145 575
-27 105 -124 487 -215 850 -92 363 -177 699 -189 748 -13 48 -25 89 -27 91 -6
6 -420 73 -959 155 -992 152 -1677 242 -1707 223 -9 -6 -3 -45 26 -157 22 -83
69 -265 105 -405 36 -140 81 -312 99 -383 29 -109 31 -125 16 -115 -10 7 -258
184 -551 394 -992 709 -1495 1052 -1686 1151 -78 41 -87 43 -167 43 -47 0 -85
-3 -85 -7z m3700 -1319 c492 -74 905 -139 917 -144 13 -5 24 -22 28 -42 4 -18
20 -82 36 -142 16 -60 28 -110 26 -113 -4 -3 -1758 249 -1827 263 -23 4 -28
16 -66 159 -33 128 -38 155 -25 155 8 0 418 -61 911 -136z m-2000 -1355 c879
-634 1150 -835 1146 -847 -3 -10 -12 -50 -21 -89 -9 -40 -18 -73 -20 -73 -2 0
-520 368 -1152 819 -1064 759 -1148 820 -1146 845 3 35 34 176 39 176 2 0 522
-374 1154 -831z m3106 529 c6 -7 24 -74 169 -628 142 -542 168 -644 240 -925
31 -121 58 -227 61 -236 3 -11 -25 -52 -77 -114 l-82 -96 -39 67 c-148 256
-334 453 -525 560 -191 107 -421 130 -598 59 -32 -14 -60 -23 -61 -22 -6 5
154 675 166 697 8 14 14 44 14 67 l1 42 -70 17 c-62 15 -86 29 -205 119 -74
56 -288 213 -475 349 -187 137 -343 251 -346 255 -4 3 -9 18 -12 32 l-7 26
921 -132 c506 -73 922 -135 925 -137z m2905 -811 c231 -456 419 -832 417 -837
-2 -5 -46 -61 -98 -124 l-94 -114 -32 56 c-54 98 -824 1599 -824 1607 0 12
195 245 203 242 4 -1 197 -375 428 -830z m-457 -545 c234 -453 426 -826 426
-829 0 -5 -462 -560 -1140 -1370 -135 -160 -248 -292 -251 -292 -4 -1 -32 42
-63 94 -123 206 -277 378 -431 480 -47 31 -85 59 -85 61 0 2 20 34 44 71 54
84 97 169 142 280 l34 86 -110 436 c-61 240 -109 444 -108 454 3 16 1108 1361
1113 1355 2 -2 194 -373 429 -826z"/>
</g>
</svg>
